<?xml version="1.0" encoding="utf-8"?>
<!-- Generator: Adobe Illustrator 24.3.0, SVG Export Plug-In . SVG Version: 6.00 Build 0)  -->
<svg version="1.1" id="Layer_1" xmlns="http://www.w3.org/2000/svg" xmlns:xlink="http://www.w3.org/1999/xlink" x="0px" y="0px"
	 viewBox="0 0 1920 1080" style="enable-background:new 0 0 1920 1080;" xml:space="preserve">
<style type="text/css">
	.st0{fill:#E55625;}
	.st1{fill:#606161;}
</style>
<path class="st0" d="M43.8,433.9L63,511.8c1.6,6.4,8.1,10.3,14.6,8.7l154.2-36.8c6.5-1.5,13,2.4,14.6,8.7l34.8,141.1
	c1.6,6.4,8.1,10.3,14.6,8.7l74.4-17.8c6.5-1.5,10.4-8,8.9-14.3l-36.6-148.5c-1.6-6.3-8-10.2-14.5-8.7l-65.2,15.3
	c-6.5,1.5-13-2.4-14.5-8.8l-16.9-70.2c-1.5-6.4-8.1-10.3-14.6-8.8L52.7,419.6C46.2,421.1,42.2,427.5,43.8,433.9z"/>
<path class="st0" d="M584.5,444l-15-75.6c-1.4-7.3-8.6-12-16-10.6l-152.6,29.3c-7.4,1.4-14.5-3.3-16-10.6l-27.7-139.5
	c-1.4-7.3-8.6-12-16-10.6l-72.1,13.9c-7.4,1.4-12.2,8.5-10.8,15.7L287.6,403c1.4,7.2,8.6,12,15.9,10.6l62.8-11.8
	c7.4-1.4,14.5,3.4,15.9,10.7l13.1,67.8c1.4,7.3,8.6,12.1,16,10.6l162.5-31.2C581.1,458.3,585.9,451.3,584.5,444z"/>
<path class="st1" d="M571.1,577.2c22.8,0,43,8.4,60.5,25.2c17.6,16.8,26.3,39,26.3,66.6v0.9v144.7c0,10.1-8.2,18.2-18.2,18.2h-29.2
	c-10.1,0-18.2-8.2-18.2-18.2V696.5c0-39.3-14.4-59-43.2-59c-14.1,0-26.3,3.1-36.7,9.2c-8.9,5.3-15.6,12.2-20.2,20.9
	c-1.4,2.6-2.1,5.6-2.1,8.6l0,138.4c0,10.1-8.2,18.2-18.2,18.2h-29.2c-10.1,0-18.2-8.2-18.2-18.2V654c0-10.1,8.2-18.2,18.2-18.2h11
	c9.9,0,18-7.9,18.2-17.7l0.5-17.8c0.4-14.1,12.1-25.2,26.2-24.8L571.1,577.2z"/>
<path class="st1" d="M814.2,577.2c32.7,0,60.2,11,82.6,33.1c22.4,22.1,33.5,53.6,33.5,94.8l0,0c0,11.4-9.3,20.7-20.7,20.7l-159.1,0
	c-0.1,0-0.2,0.1-0.2,0.2c3,16.4,10.3,29.5,21.8,39.2c11.5,9.8,25.3,14.6,41.2,14.6c20.2,0,36.3-7.3,48.2-21.9
	c3.8-4.6,10.1-6,15.4-3.4l31.3,15.8c8.5,4.3,10.8,15.3,4.8,22.7c-9.8,12-21.6,21.8-35.4,29.6c-19.2,10.8-40.7,16.2-64.4,16.2
	c-36.6,0-67.2-12.3-91.8-36.9c-24.6-24.6-36.9-56-36.9-94.1c0-38.1,12.4-69.4,37.4-93.9C746.8,589.5,777.6,577.2,814.2,577.2z
	 M813.3,635.7c-12.9,0-24.6,3.5-35.1,10.6c-10.4,7-18.2,16.6-23.3,28.8c0,0.1,0,0.2,0.2,0.2l109.4,0c0.1,0,0.2-0.1,0.2-0.2
	c0-9.2-4-18.1-11.9-26.6C844.7,640,831.6,635.7,813.3,635.7z"/>
<path class="st1" d="M1256.2,591.1h46c5.5,0,9.9,4.4,9.9,9.9v127c0,39.3,14.4,59,43.2,59c14.1,0,27.3-1.7,36.7-9.2
	c17.2-13.8,12.7-46.5,15.8-57.9c0.1-0.5,0.2-1.1,0.3-1.6l5.8-117.7c0.3-5.3,4.6-9.4,9.9-9.4h46.4c5.5,0,9.9,4.4,9.9,9.9v230.5
	c0,5.5-4.4,9.9-9.9,9.9h-46c-5.5,0-9.9-4.4-9.9-9.9v0c0-8.4-9.6-12.8-16.2-7.6c-6.2,4.9-13.1,9.2-20.7,12.8
	c-15,7-29.9,10.6-44.6,10.6c-22.8,0-42.9-8.3-60.3-25c-17.4-16.7-26.1-38.8-26.1-66.4v-1.8V601
	C1246.3,595.5,1250.7,591.1,1256.2,591.1z"/>
<path class="st1" d="M1643.8,585.7c14.1,0,27.5,3.4,40.3,10.1c10,5.3,18.6,12.3,25.7,21c2.9,3.6,8.3,4,11.5,0.7
	c8.3-8.8,18.2-15.9,29.9-21.5c14.6-6.9,29-10.4,43.4-10.4c22.8,0,42.9,8.4,60.3,25.2c17.4,16.8,26.1,39,26.1,66.6v0.9v155.4
	c0,4.2-3.4,7.6-7.6,7.6h-51.1c-4.2,0-7.6-3.4-7.6-7.6V705c0-39.3-14.4-59-43.2-59c-20.5,0-34.1,8.5-40.9,25.6
	c-0.4,0.9-0.5,1.9-0.5,2.8l0,3.9v155.4c0,4.2-3.4,7.6-7.6,7.6H1672c-4.2,0-7.6-3.4-7.6-7.6V705c0-39.3-14.4-59-43.2-59
	c-20.5,0-34.3,9-41.3,27c-0.3,0.9-0.5,1.9-0.5,2.8v158c0,4.2-3.4,7.6-7.6,7.6h-50.6c-4.2,0-7.6-3.4-7.6-7.6V628.3
	c0-20.5,16.6-37.1,37.1-37.1h21c4.2,0,7.6,3.4,7.6,7.6l0,0c0,6.5,7.6,10,12.5,5.7C1606,591.9,1623.3,585.7,1643.8,585.7z"/>
<g>
	<path class="st1" d="M957.7,615l32.4-31.6c6.7-6.5,17.4-6.4,23.9,0.3l62.3,63.9c6.5,6.7,17.2,6.8,23.9,0.3l64.3-62.6
		c6.7-6.5,17.4-6.4,23.9,0.3l31.6,32.4c6.5,6.7,6.4,17.4-0.3,23.9l-64.3,62.6c-6.7,6.5-6.8,17.2-0.3,23.9l62.6,64.3
		c6.5,6.7,6.4,17.4-0.3,23.9l-32.4,31.6c-6.7,6.5-17.4,6.4-23.9-0.3l-62.6-64.3c-6.5-6.7-17.2-6.8-23.9-0.3l-63.9,62.3
		c-6.7,6.5-17.4,6.4-23.9-0.3l-31.6-32.4c-6.5-6.7-6.4-17.4,0.3-23.9l63.9-62.3c6.7-6.5,6.8-17.2,0.3-23.9l-62.3-63.9
		C950.9,632.2,951.1,621.5,957.7,615z"/>
</g>
</svg>
